<?xml version="1.0" standalone="no"?>
<!DOCTYPE svg PUBLIC "-//W3C//DTD SVG 20010904//EN"
 "http://www.w3.org/TR/2001/REC-SVG-20010904/DTD/svg10.dtd">
<svg version="1.0" xmlns="http://www.w3.org/2000/svg"
 width="500.000000pt" height="500.000000pt" viewBox="0 0 500.000000 500.000000"
 preserveAspectRatio="xMidYMid meet">
<metadata>
Created by potrace 1.14, written by Peter Selinger 2001-2017
</metadata>
<g transform="translate(0.000000,500.000000) scale(0.100000,-0.100000)"
fill="#000000" stroke="none">
<path d="M2358 4640 c-270 -46 -474 -218 -586 -492 l-27 -68 -180 6 c-162 5
-188 4 -260 -15 -277 -73 -469 -261 -547 -536 -29 -104 -31 -296 -4 -395 40
-147 134 -295 249 -390 78 -64 218 -134 321 -160 94 -24 122 -40 142 -83 8
-18 39 -183 69 -367 51 -314 56 -336 80 -357 15 -13 33 -23 42 -23 8 0 67 22
131 49 140 59 246 93 384 123 90 20 131 23 328 22 196 0 238 -3 330 -23 119
-25 293 -81 423 -136 94 -39 117 -39 143 0 8 13 39 161 69 336 30 173 57 329
60 346 10 59 41 81 155 114 247 70 404 191 500 383 78 159 107 353 76 516 -49
257 -262 493 -524 578 -97 31 -278 40 -393 20 l-76 -14 -29 66 c-123 286 -306
445 -572 496 -78 15 -226 17 -304 4z m306 -156 c210 -51 380 -231 446 -469 24
-89 42 -115 76 -115 12 0 69 11 126 25 178 43 320 33 458 -32 98 -47 229 -175
282 -278 57 -111 71 -171 66 -294 -12 -291 -202 -526 -474 -587 -95 -21 -367
-15 -514 11 -195 35 -376 110 -507 209 -79 61 -101 70 -143 61 -28 -6 -30 -10
-30 -49 0 -23 6 -50 13 -58 31 -42 421 -243 555 -288 48 -15 143 -36 212 -45
69 -8 130 -17 136 -20 8 -2 6 -43 -7 -140 -10 -76 -20 -139 -22 -141 -2 -2
-69 19 -149 46 -275 95 -479 127 -753 117 -175 -6 -379 -37 -434 -65 -49 -26
-75 -64 -67 -96 12 -47 37 -50 191 -20 189 36 466 44 635 20 258 -38 491 -121
525 -187 16 -30 14 -73 -6 -111 -8 -15 -12 -15 -58 3 -72 27 -263 76 -366 94
-343 59 -715 27 -1063 -92 -41 -14 -75 -23 -76 -21 -3 3 -72 431 -83 511 -5
45 -4 50 27 82 22 23 63 46 125 70 50 19 101 44 113 55 17 16 62 100 62 117 0
3 -33 3 -72 0 -49 -2 -103 -15 -163 -37 -165 -60 -357 -52 -507 22 -87 44
-212 169 -261 265 -126 242 -92 507 90 702 169 184 376 240 642 175 153 -37
171 -27 211 121 31 115 74 189 160 276 159 162 374 219 604 163z"/>
<path d="M1873 1650 c-126 -33 -242 -100 -448 -260 -145 -112 -270 -162 -409
-162 -109 -1 -170 14 -296 74 -107 50 -177 65 -201 41 -19 -19 -23 -106 -9
-191 59 -367 300 -639 667 -752 108 -33 238 -50 388 -50 380 0 658 104 878
328 l59 59 76 -76 c227 -226 513 -322 917 -308 251 9 408 51 573 154 186 115
312 279 386 503 45 136 51 185 36 274 l-12 73 -68 -13 c-37 -7 -94 -26 -126
-42 -101 -51 -189 -74 -289 -75 -155 -1 -256 40 -425 173 -128 100 -161 120
-308 182 -314 133 -493 113 -702 -79 l-54 -50 -76 60 c-78 63 -201 126 -282
146 -69 16 -193 12 -275 -9z m327 -164 c82 -43 137 -92 198 -179 92 -131 114
-133 197 -15 63 89 139 159 213 195 46 23 73 29 145 32 153 6 231 -29 512
-230 250 -178 347 -214 549 -207 95 4 139 11 201 31 129 43 132 40 91 -81 -85
-248 -241 -396 -508 -481 -136 -43 -251 -61 -388 -61 -190 0 -336 36 -509 125
-114 59 -173 112 -273 244 -125 167 -135 168 -226 31 -132 -199 -272 -302
-494 -362 -75 -21 -105 -23 -308 -23 -180 0 -242 4 -310 18 -262 56 -443 194
-558 423 -30 60 -67 182 -59 191 3 2 62 -10 132 -27 205 -52 356 -41 510 36
39 19 145 88 236 152 166 118 278 184 354 209 25 8 77 12 140 10 87 -3 107 -7
155 -31z"/>
</g>
</svg>
